<?xml version="1.0" standalone="no"?>
<!DOCTYPE svg PUBLIC "-//W3C//DTD SVG 20010904//EN"
 "http://www.w3.org/TR/2001/REC-SVG-20010904/DTD/svg10.dtd">
<svg version="1.0" xmlns="http://www.w3.org/2000/svg"
 width="100.000000pt" height="100.000000pt" viewBox="0 0 100.000000 100.000000"
 preserveAspectRatio="xMidYMid meet">
<metadata>
Created by potrace 1.14, written by Peter Selinger 2001-2017
</metadata>
<g transform="translate(0.000000,100.000000) scale(0.100000,-0.100000)"
fill="#000000" stroke="none">
<path d="M256 869 c-20 -16 -26 -28 -22 -44 3 -12 44 -90 92 -173 l86 -151
-78 -133 c-122 -211 -120 -204 -78 -237 30 -24 67 -27 86 -8 7 8 45 71 83 140
39 70 72 127 75 127 3 0 37 -57 75 -127 79 -142 87 -153 119 -153 29 0 76 36
76 58 0 9 -41 88 -91 175 l-91 158 87 152 c48 84 87 163 87 176 1 31 -35 61
-73 61 -22 0 -34 -8 -52 -37 -21 -33 -88 -155 -123 -221 l-12 -23 -19 33 c-11
18 -46 79 -77 134 -67 122 -93 138 -150 93z m155 -144 c44 -80 85 -145 89
-145 8 0 61 89 120 203 44 83 54 93 87 82 33 -12 41 -43 19 -77 -8 -13 -48
-83 -90 -157 l-74 -133 37 -62 c21 -33 64 -108 96 -165 l59 -104 -23 -18 c-44
-36 -53 -27 -141 131 -45 83 -86 150 -90 150 -4 0 -42 -65 -86 -145 -44 -80
-87 -147 -97 -151 -19 -6 -67 20 -67 36 0 6 42 83 94 171 l95 161 -45 75 c-24
41 -44 77 -44 79 0 2 -11 21 -23 42 -13 20 -36 58 -50 85 -27 47 -27 47 -7 67
41 41 54 29 141 -125z"/>
<path d="M660 775 c-6 -8 -10 -19 -8 -26 2 -6 9 0 16 15 13 29 10 33 -8 11z"/>
<path d="M610 683 c-13 -27 -35 -65 -48 -86 -13 -21 -22 -43 -20 -48 2 -5 25
30 51 78 26 48 46 90 45 95 -2 4 -14 -13 -28 -39z"/>
</g>
</svg>
